<svg width="23" height="23" viewBox="0 0 23 23" fill="none" xmlns="http://www.w3.org/2000/svg">
<path d="M17.6667 10.2674H12.1297M17.6667 14.697H12.1297M17.6667 5.83781H12.1297M8.25378 1.4082L8.25378 21.3414M6.9249 1.4082H16.2271C18.0877 1.4082 19.018 1.4082 19.7286 1.7703C20.3537 2.08881 20.862 2.59704 21.1805 3.22216C21.5426 3.93281 21.5426 4.86312 21.5426 6.72373V16.0259C21.5426 17.8865 21.5426 18.8168 21.1805 19.5275C20.862 20.1526 20.3537 20.6608 19.7286 20.9793C19.018 21.3414 18.0877 21.3414 16.2271 21.3414H6.9249C5.06429 21.3414 4.13399 21.3414 3.42333 20.9793C2.79822 20.6608 2.28998 20.1526 1.97147 19.5275C1.60938 18.8168 1.60938 17.8865 1.60938 16.0259V6.72373C1.60938 4.86312 1.60938 3.93281 1.97147 3.22216C2.28998 2.59704 2.79822 2.08881 3.42333 1.7703C4.13399 1.4082 5.06429 1.4082 6.9249 1.4082Z" stroke="white" stroke-width="1.6" stroke-linecap="round" stroke-linejoin="round"/>
</svg>
