<svg width="19" height="20" viewBox="0 0 19 20" fill="none" xmlns="http://www.w3.org/2000/svg">
<path d="M6.17945 14.8336H13.5478M8.95889 1.72157L2.71207 6.58021C2.2945 6.90499 2.08571 7.06738 1.93529 7.27075C1.80205 7.45089 1.7028 7.65384 1.6424 7.86961C1.57422 8.1132 1.57422 8.3777 1.57422 8.90671V15.5704C1.57422 16.6021 1.57422 17.1179 1.77499 17.512C1.9516 17.8586 2.23341 18.1404 2.58002 18.317C2.97406 18.5178 3.4899 18.5178 4.52157 18.5178H15.2057C16.2374 18.5178 16.7532 18.5178 17.1473 18.317C17.4939 18.1404 17.7757 17.8586 17.9523 17.512C18.1531 17.1179 18.1531 16.6021 18.1531 15.5704V8.90671C18.1531 8.3777 18.1531 8.1132 18.0849 7.86961C18.0245 7.65384 17.9252 7.45089 17.792 7.27075C17.6416 7.06738 17.4328 6.90499 17.0152 6.58021L10.7684 1.72157C10.4448 1.46989 10.283 1.34406 10.1044 1.29568C9.94672 1.253 9.78057 1.253 9.62293 1.29568C9.44427 1.34406 9.28248 1.46989 8.95889 1.72157Z" stroke="#49D49C" stroke-width="1.6" stroke-linecap="round" stroke-linejoin="round"/>
</svg>
