<svg width="202" height="44" viewBox="0 0 202 44" fill="none" xmlns="http://www.w3.org/2000/svg">
<path fill-rule="evenodd" clip-rule="evenodd" d="M66.4267 29.1753C67.8637 27.4362 68.7271 25.2057 68.7271 22.7735C68.7271 17.2192 64.2245 12.7166 58.6702 12.7166C53.1159 12.7166 48.6133 17.2192 48.6133 22.7735C48.6133 28.3277 53.1159 32.8304 58.6702 32.8304C60.7216 32.8304 62.6296 32.2161 64.2202 31.1616L65.0601 32.3195C65.1394 32.4289 65.2663 32.4936 65.4014 32.4936H68.0068C68.3511 32.4936 68.5502 32.1032 68.3481 31.8245L66.4267 29.1753ZM64.3846 26.3597C65.0365 25.3221 65.4136 24.0942 65.4136 22.7783C65.4136 19.0551 62.3953 16.0369 58.6721 16.0369C54.9489 16.0369 51.9307 19.0551 51.9307 22.7783C51.9307 26.5015 54.9489 29.5198 58.6721 29.5198C59.9966 29.5198 61.2319 29.1378 62.2739 28.478L61.5393 27.4652L60.2011 25.62C59.9989 25.3413 60.1981 24.9509 60.5423 24.9509H63.1478C63.2829 24.9509 63.4098 25.0156 63.4891 25.125L64.3846 26.3597ZM184.331 16.5837C184.098 16.5837 183.909 16.3949 183.909 16.1621V13.3998C183.909 13.167 184.098 12.9783 184.331 12.9783H186.861C187.094 12.9783 187.283 13.167 187.283 13.3998V16.1621C187.283 16.3949 187.094 16.5837 186.861 16.5837H184.331ZM184.331 32.1642C184.098 32.1642 183.909 31.9755 183.909 31.7427V18.5762C183.909 18.3434 184.098 18.1546 184.331 18.1546H186.861C187.094 18.1546 187.283 18.3434 187.283 18.5762V31.7427C187.283 31.9755 187.094 32.1642 186.861 32.1642H184.331ZM169.833 32.1641C169.6 32.1641 169.411 31.9754 169.411 31.7425V18.5761C169.411 18.3432 169.6 18.1545 169.833 18.1545H172.22C172.418 18.1545 172.579 18.3152 172.579 18.5134C172.579 18.8824 173.162 19.0693 173.446 18.8337C173.666 18.6515 173.909 18.4937 174.175 18.3605C174.879 18.0171 175.669 17.8455 176.545 17.8455C177.575 17.8455 178.485 18.0687 179.275 18.515C180.081 18.9614 180.708 19.5881 181.154 20.395C181.601 21.1848 181.824 22.1033 181.824 23.1506V31.7426C181.824 31.9754 181.635 32.1641 181.402 32.1641H178.872C178.639 32.1641 178.45 31.9754 178.45 31.7426V23.9489C178.45 23.0218 178.184 22.2921 177.652 21.7599C177.137 21.2105 176.459 20.9358 175.618 20.9358C174.776 20.9358 174.09 21.2105 173.557 21.7599C173.042 22.3093 172.785 23.039 172.785 23.9489V31.7426C172.785 31.9754 172.596 32.1641 172.363 32.1641H169.833ZM160.455 32.4732C161.811 32.4732 163.047 32.1641 164.163 31.546C165.279 30.9108 166.172 30.0438 166.842 28.945C167.511 27.829 167.846 26.5671 167.846 25.1593C167.846 23.7515 167.511 22.4982 166.842 21.3994C166.189 20.3006 165.305 19.4336 164.189 18.7983C163.073 18.1631 161.828 17.8455 160.455 17.8455C159.064 17.8455 157.811 18.1631 156.695 18.7983C155.579 19.4336 154.686 20.3006 154.017 21.3994C153.364 22.4982 153.038 23.7515 153.038 25.1593C153.038 26.5671 153.364 27.8204 154.017 28.9192C154.686 30.018 155.579 30.8851 156.695 31.5203C157.828 32.1555 159.081 32.4732 160.455 32.4732ZM160.455 29.3828C159.7 29.3828 159.021 29.2025 158.42 28.842C157.837 28.4814 157.373 27.9836 157.03 27.3483C156.704 26.6959 156.54 25.9662 156.54 25.1593C156.54 24.3524 156.704 23.6313 157.03 22.9961C157.373 22.3608 157.837 21.8629 158.42 21.5024C159.021 21.1247 159.7 20.9358 160.455 20.9358C161.21 20.9358 161.871 21.1247 162.438 21.5024C163.022 21.8629 163.477 22.3608 163.803 22.9961C164.146 23.6313 164.318 24.3524 164.318 25.1593C164.318 25.9662 164.146 26.6959 163.803 27.3483C163.477 27.9836 163.022 28.4814 162.438 28.842C161.871 29.2025 161.21 29.3828 160.455 29.3828ZM148.149 37.0057C147.119 37.5551 145.934 37.8298 144.595 37.8298C143.015 37.8298 141.625 37.4521 140.423 36.6966C139.364 36.0369 138.6 35.1782 138.131 34.1208C138.038 33.9101 138.15 33.6697 138.365 33.5884L140.702 32.7075C140.928 32.6222 141.177 32.7464 141.283 32.9635C141.512 33.4276 141.86 33.8136 142.329 34.1213C142.947 34.5334 143.702 34.7394 144.595 34.7394C145.608 34.7394 146.44 34.4475 147.093 33.8638C147.745 33.2973 148.072 32.4989 148.072 31.4688V31.0423C148.072 30.6567 147.571 30.4513 147.255 30.6728C146.377 31.2893 145.301 31.5976 144.028 31.5976C142.723 31.5976 141.556 31.2971 140.526 30.6962C139.496 30.0953 138.689 29.2712 138.105 28.2239C137.521 27.1766 137.229 26.0006 137.229 24.6958C137.229 23.3738 137.521 22.1977 138.105 21.1676C138.689 20.1375 139.487 19.3305 140.5 18.7468C141.513 18.1459 142.663 17.8455 143.951 17.8455C145.319 17.8455 146.474 18.2162 147.417 18.9577C147.728 19.2019 148.252 19.0004 148.252 18.6053V18.5761C148.252 18.3432 148.441 18.1545 148.673 18.1545H151.024C151.256 18.1545 151.445 18.3432 151.445 18.5761V31.4688C151.445 32.6878 151.153 33.778 150.57 34.7394C149.986 35.7009 149.179 36.4563 148.149 37.0057ZM141.762 27.4256C142.466 28.1295 143.359 28.4814 144.44 28.4814C145.505 28.4814 146.372 28.1295 147.041 27.4256C147.728 26.7217 148.072 25.8203 148.072 24.7215C148.072 23.6227 147.728 22.7214 147.041 22.0174C146.372 21.2964 145.505 20.9358 144.44 20.9358C143.736 20.9358 143.101 21.0989 142.535 21.4251C141.968 21.7513 141.522 22.2063 141.195 22.79C140.886 23.3566 140.732 24.0004 140.732 24.7215C140.732 25.8031 141.075 26.7045 141.762 27.4256ZM127.886 32.4732C129.296 32.4732 130.49 32.1124 131.467 31.3908C131.774 31.1644 132.264 31.3652 132.264 31.7464C132.264 31.9771 132.451 32.1641 132.682 32.1641H135.036C135.269 32.1641 135.457 31.9754 135.457 31.7426V22.8415C135.457 21.8629 135.209 20.9959 134.711 20.2405C134.213 19.4851 133.526 18.9013 132.65 18.4893C131.792 18.0601 130.788 17.8455 129.637 17.8455C128.229 17.8455 126.976 18.1802 125.877 18.8498C124.899 19.4459 124.193 20.2121 123.759 21.1483C123.668 21.3457 123.761 21.5751 123.956 21.6702L125.961 22.6445C126.181 22.7511 126.442 22.648 126.561 22.435C126.812 21.9864 127.15 21.6154 127.577 21.3221C128.126 20.9272 128.77 20.7298 129.509 20.7298C130.281 20.7298 130.899 20.9358 131.363 21.3479C131.843 21.7427 132.084 22.2406 132.084 22.8415V22.9458C132.084 23.1528 131.934 23.3292 131.729 23.362L127.912 23.9747C126.264 24.2494 125.045 24.773 124.255 25.5456C123.465 26.3182 123.07 27.2882 123.07 28.4557C123.07 29.6918 123.508 30.6704 124.384 31.3915C125.259 32.1126 126.427 32.4732 127.886 32.4732ZM126.573 28.3269C126.573 27.3483 127.234 26.7302 128.556 26.4727L131.592 25.9629C131.85 25.9197 132.084 26.1179 132.084 26.3786V26.447C132.084 27.4084 131.749 28.2239 131.079 28.8935C130.427 29.5631 129.569 29.8979 128.504 29.8979C127.938 29.8979 127.474 29.7605 127.114 29.4858C126.753 29.1939 126.573 28.8076 126.573 28.3269ZM119.785 32.3202C120.042 32.3202 120.325 32.303 120.635 32.2686C120.798 32.2505 120.952 32.2323 121.096 32.2141C121.304 32.1879 121.459 32.0098 121.459 31.8V29.7747C121.459 29.5156 121.227 29.3197 120.969 29.3409C120.826 29.3527 120.689 29.3586 120.557 29.3586C119.733 29.3586 119.132 29.1697 118.755 28.792C118.377 28.4143 118.188 27.8735 118.188 27.1696V21.5907C118.188 21.3579 118.377 21.1691 118.61 21.1691H120.986C121.218 21.1691 121.407 20.9804 121.407 20.7475V18.5776C121.407 18.3448 121.218 18.156 120.986 18.156H118.61C118.377 18.156 118.188 17.9673 118.188 17.7344V15.3842C118.188 15.1514 117.999 14.9626 117.766 14.9626H115.236C115.003 14.9626 114.814 15.1514 114.814 15.3842V16.0443V17.7344C114.814 17.9673 114.626 18.156 114.393 18.156H112.651C112.509 18.156 112.394 18.2713 112.394 18.4135V20.7475C112.394 20.9804 112.582 21.1691 112.815 21.1691H114.393C114.626 21.1691 114.814 21.3579 114.814 21.5907V27.3498C114.814 28.9122 115.244 30.1311 116.102 31.0068C116.978 31.8824 118.205 32.3202 119.785 32.3202ZM99.1328 31.7425C99.1328 31.9754 99.3216 32.1641 99.5544 32.1641H102.085C102.318 32.1641 102.506 31.9754 102.506 31.7426V23.9489C102.506 23.039 102.764 22.3093 103.279 21.7599C103.811 21.2105 104.498 20.9358 105.339 20.9358C106.181 20.9358 106.859 21.2105 107.374 21.7599C107.906 22.2921 108.172 23.0218 108.172 23.9489V31.7426C108.172 31.9754 108.361 32.1641 108.594 32.1641H111.124C111.357 32.1641 111.546 31.9754 111.546 31.7426V23.1506C111.546 22.1033 111.323 21.1848 110.876 20.395C110.43 19.5881 109.803 18.9614 108.996 18.515C108.206 18.0687 107.297 17.8455 106.266 17.8455C105.391 17.8455 104.601 18.0171 103.897 18.3605C103.631 18.4937 103.388 18.6515 103.168 18.8337C102.884 19.0693 102.3 18.8824 102.3 18.5134C102.3 18.3152 102.14 18.1545 101.942 18.1545H99.5544C99.3216 18.1545 99.1328 18.3432 99.1328 18.5761V31.7425ZM93.013 31.3908C92.0358 32.1124 90.8422 32.4732 89.432 32.4732C87.9727 32.4732 86.8052 32.1126 85.9296 31.3915C85.054 30.6704 84.6162 29.6918 84.6162 28.4557C84.6162 27.2882 85.0111 26.3182 85.8008 25.5456C86.5906 24.773 87.8096 24.2494 89.4578 23.9747L93.275 23.362C93.4794 23.3292 93.6298 23.1528 93.6298 22.9458V22.8415C93.6298 22.2406 93.3894 21.7427 92.9087 21.3479C92.4451 20.9358 91.827 20.7298 91.0545 20.7298C90.3162 20.7298 89.6724 20.9272 89.123 21.3221C88.6963 21.6154 88.3577 21.9864 88.1071 22.435C87.9881 22.648 87.7265 22.7511 87.507 22.6445L85.5023 21.6702C85.3066 21.5751 85.2136 21.3457 85.3051 21.1483C85.739 20.2121 86.4451 19.4459 87.4233 18.8498C88.5221 18.1802 89.7754 17.8455 91.1832 17.8455C92.3335 17.8455 93.3379 18.0601 94.1963 18.4893C95.0719 18.9013 95.7587 19.4851 96.2566 20.2405C96.7545 20.9959 97.0034 21.8629 97.0034 22.8415V31.7426C97.0034 31.9754 96.8147 32.1641 96.5818 32.1641H94.2277C93.997 32.1641 93.81 31.9771 93.81 31.7464C93.81 31.3652 93.3197 31.1644 93.013 31.3908ZM90.1016 26.4727C88.7796 26.7302 88.1186 27.3483 88.1186 28.3269C88.1186 28.8076 88.2989 29.1939 88.6594 29.4858C89.02 29.7605 89.4835 29.8979 90.0501 29.8979C91.1145 29.8979 91.973 29.5631 92.6254 28.8935C93.295 28.2239 93.6298 27.4084 93.6298 26.447V26.3786C93.6298 26.1179 93.3955 25.9197 93.1384 25.9629L90.1016 26.4727ZM75.6876 32.4766C76.5632 32.4766 77.3358 32.3135 78.0053 31.9873C78.2887 31.8456 78.5472 31.6777 78.7808 31.4834C79.0651 31.247 79.6278 31.4327 79.6278 31.8024C79.6278 32.0041 79.7913 32.1676 79.993 32.1676H82.3996C82.6324 32.1676 82.8211 31.9788 82.8211 31.746V18.5795C82.8211 18.3467 82.6324 18.158 82.3996 18.158H79.8691C79.6362 18.158 79.4475 18.3467 79.4475 18.5795V26.3732C79.4475 27.3003 79.1814 28.0385 78.6492 28.5879C78.1169 29.1201 77.4388 29.3863 76.6147 29.3863C75.7734 29.3863 75.0867 29.1201 74.5544 28.5879C74.0394 28.0557 73.7818 27.3432 73.7818 26.4504V18.5795C73.7818 18.3467 73.5931 18.158 73.3603 18.158H70.8298C70.5969 18.158 70.4082 18.3467 70.4082 18.5795V26.7337C70.4082 28.4506 70.8718 29.8412 71.7989 30.9057C72.7431 31.953 74.0394 32.4766 75.6876 32.4766ZM197.451 31.3908C196.473 32.1124 195.28 32.4732 193.87 32.4732C192.41 32.4732 191.243 32.1126 190.367 31.3915C189.492 30.6704 189.054 29.6918 189.054 28.4557C189.054 27.2882 189.449 26.3182 190.238 25.5456C191.028 24.773 192.247 24.2494 193.895 23.9747L197.712 23.362C197.917 23.3292 198.067 23.1528 198.067 22.9458V22.8415C198.067 22.2406 197.827 21.7427 197.346 21.3479C196.883 20.9358 196.265 20.7298 195.492 20.7298C194.754 20.7298 194.11 20.9272 193.56 21.3221C193.134 21.6154 192.795 21.9864 192.545 22.435C192.426 22.648 192.164 22.7511 191.945 22.6445L189.94 21.6702C189.744 21.5751 189.651 21.3457 189.743 21.1483C190.177 20.2121 190.883 19.4459 191.861 18.8498C192.96 18.1802 194.213 17.8455 195.621 17.8455C196.771 17.8455 197.775 18.0601 198.634 18.4893C199.509 18.9013 200.196 19.4851 200.694 20.2405C201.192 20.9959 201.441 21.8629 201.441 22.8415V31.7426C201.441 31.9754 201.252 32.1641 201.019 32.1641H198.665C198.435 32.1641 198.248 31.9771 198.248 31.7464C198.248 31.3652 197.757 31.1644 197.451 31.3908ZM194.539 26.4727C193.217 26.7302 192.556 27.3483 192.556 28.3269C192.556 28.8076 192.736 29.1939 193.097 29.4858C193.457 29.7605 193.921 29.8979 194.488 29.8979C195.552 29.8979 196.41 29.5631 197.063 28.8935C197.732 28.2239 198.067 27.4084 198.067 26.447V26.3786C198.067 26.1179 197.833 25.9197 197.576 25.9629L194.539 26.4727Z" fill="white"/>
<path fill-rule="evenodd" clip-rule="evenodd" d="M18.6846 35.7519C8.85408 35.7397 0.888672 27.7668 0.888672 17.9334C0.888672 8.09258 8.86627 0.11499 18.7071 0.11499C28.548 0.11499 36.5256 8.09258 36.5256 17.9334C36.5256 19.5706 36.3048 21.1561 35.8914 22.662H29.4342C30.0814 21.2032 30.4411 19.5885 30.4411 17.8898C30.4411 11.3852 25.1681 6.11225 18.6635 6.11225C12.1589 6.11225 6.88593 11.3852 6.88593 17.8898C6.88593 24.3944 12.1589 29.6674 18.6635 29.6674L18.6889 29.6673V35.7517H40.4839V43.1125H18.6846V35.7519Z" fill="#49D49C"/>
</svg>
