<svg width="19" height="19" viewBox="0 0 19 19" fill="none" xmlns="http://www.w3.org/2000/svg">
<path d="M14.9294 8.96945H10.3242M14.9294 12.6536H10.3242M14.9294 5.28526H10.3242M7.1005 1.60107L7.1005 18.1799M5.99524 1.60107H13.732C15.2795 1.60107 16.0533 1.60107 16.6444 1.90224C17.1643 2.16715 17.587 2.58986 17.8519 3.10978C18.1531 3.70084 18.1531 4.4746 18.1531 6.0221V13.7589C18.1531 15.3064 18.1531 16.0802 17.8519 16.6712C17.587 17.1911 17.1643 17.6138 16.6444 17.8788C16.0533 18.1799 15.2795 18.1799 13.732 18.1799H5.99524C4.44774 18.1799 3.67399 18.1799 3.08292 17.8788C2.563 17.6138 2.14029 17.1911 1.87538 16.6712C1.57422 16.0802 1.57422 15.3064 1.57422 13.7589V6.0221C1.57422 4.4746 1.57422 3.70084 1.87538 3.10978C2.14029 2.58986 2.563 2.16715 3.08292 1.90224C3.67399 1.60107 4.44774 1.60107 5.99524 1.60107Z" stroke="#49D49C" stroke-width="1.6" stroke-linecap="round" stroke-linejoin="round"/>
</svg>
