<svg width="16" height="21" viewBox="0 0 16 21" fill="none" xmlns="http://www.w3.org/2000/svg">
<path d="M5.55877 20.1011H10.164M10.6245 13.9544C12.8028 12.9196 14.3087 10.6994 14.3087 8.1275C14.3087 4.56674 11.4222 1.68018 7.86139 1.68018C4.30063 1.68018 1.41406 4.56674 1.41406 8.1275C1.41406 10.6994 2.92002 12.9196 5.09825 13.9544V14.5748C5.09825 15.4331 5.09825 15.8623 5.23847 16.2008C5.42543 16.6522 5.78404 17.0108 6.2354 17.1977C6.57393 17.338 7.00308 17.338 7.86139 17.338C8.7197 17.338 9.14885 17.338 9.48737 17.1977C9.93874 17.0108 10.2973 16.6522 10.4843 16.2008C10.6245 15.8623 10.6245 15.4331 10.6245 14.5748V13.9544Z" stroke="#49D49C" stroke-width="1.6" stroke-linecap="round" stroke-linejoin="round"/>
</svg>
