<svg width="21" height="19" viewBox="0 0 21 19" fill="none" xmlns="http://www.w3.org/2000/svg">
<path d="M11.7839 5.28526L10.7564 3.23033C10.4607 2.63891 10.3128 2.34319 10.0922 2.12714C9.89717 1.93609 9.66206 1.79079 9.40394 1.70175C9.11205 1.60107 8.78144 1.60107 8.1202 1.60107H4.59969C3.56802 1.60107 3.05219 1.60107 2.65814 1.80185C2.31153 1.97846 2.02973 2.26026 1.85312 2.60687C1.65234 3.00092 1.65234 3.51675 1.65234 4.54842V5.28526M1.65234 5.28526H15.6523C17.1998 5.28526 17.9735 5.28526 18.5646 5.58643C19.0845 5.85134 19.5072 6.27404 19.7721 6.79396C20.0733 7.38503 20.0733 8.15878 20.0733 9.70629V13.7589C20.0733 15.3064 20.0733 16.0801 19.7721 16.6712C19.5072 17.1911 19.0845 17.6138 18.5646 17.8788C17.9735 18.1799 17.1998 18.1799 15.6523 18.1799H6.07337C4.52586 18.1799 3.75211 18.1799 3.16104 17.8788C2.64113 17.6138 2.21842 17.1911 1.95351 16.6712C1.65234 16.0801 1.65234 15.3064 1.65234 13.7589V5.28526Z" stroke="#49D49C" stroke-width="1.6" stroke-linecap="round" stroke-linejoin="round"/>
</svg>
